<svg width="18" height="18" viewBox="0 0 18 18" fill="none" xmlns="http://www.w3.org/2000/svg">
<path fill-rule="evenodd" clip-rule="evenodd" d="M0.291294 16.2446C-0.110688 16.6597 -0.0948373 17.3172 0.326698 17.713C0.748234 18.1089 1.41583 18.0933 1.81781 17.6782L8.99996 10.2614L16.1821 17.6782C16.5841 18.0933 17.2517 18.1089 17.6732 17.713C18.0948 17.3172 18.1106 16.6597 17.7086 16.2446L10.4573 8.75641L17.2369 1.75538C17.6388 1.34026 17.623 0.682838 17.2015 0.286978C16.7799 -0.108882 16.1123 -0.0932724 15.7104 0.321842L8.99996 7.25145L2.28958 0.321845C1.8876 -0.0932696 1.22 -0.108879 0.798467 0.28698C0.376931 0.682841 0.36108 1.34027 0.763062 1.75538L7.54261 8.75641L0.291294 16.2446Z" fill="#B3B3B3"/>
</svg>
